<?xml version="1.0" standalone="no"?>
<!DOCTYPE svg PUBLIC "-//W3C//DTD SVG 20010904//EN"
 "http://www.w3.org/TR/2001/REC-SVG-20010904/DTD/svg10.dtd">
<svg version="1.0" xmlns="http://www.w3.org/2000/svg"
 width="984.000000pt" height="984.000000pt" viewBox="0 0 984.000000 984.000000"
 preserveAspectRatio="xMidYMid meet">
<metadata>
Created by potrace 1.14, written by Peter Selinger 2001-2017
</metadata>
<g transform="translate(0.000000,984.000000) scale(0.100000,-0.100000)"
fill="#000000" stroke="none">
<path d="M4828 9835 c-2 -2 -19 -7 -38 -10 -52 -8 -148 -45 -204 -77 -26 -16
-53 -30 -60 -31 -6 -1 -13 -5 -16 -8 -8 -10 -201 -119 -210 -119 -4 0 -13 -7
-20 -15 -7 -8 -16 -12 -21 -9 -5 3 -9 1 -9 -5 0 -6 -11 -13 -25 -17 -14 -3
-25 -9 -25 -13 0 -4 -16 -13 -35 -21 -19 -7 -36 -19 -39 -27 -3 -7 47 -94 112
-193 l117 -179 75 44 c41 24 81 44 88 45 6 0 12 5 12 10 0 6 5 10 10 10 6 0
72 35 148 78 166 94 164 94 226 97 59 4 97 -10 224 -82 52 -29 98 -53 103 -53
5 0 9 -4 9 -8 0 -4 27 -21 60 -37 33 -17 60 -34 60 -38 0 -5 5 -5 10 -2 6 3
10 1 10 -4 0 -6 4 -11 9 -11 5 0 63 -31 129 -69 67 -37 127 -71 134 -75 26
-14 76 -42 187 -106 196 -113 245 -140 274 -153 15 -6 27 -15 27 -19 0 -4 4
-8 8 -8 9 0 247 -131 267 -147 12 -9 48 -29 119 -67 27 -14 54 -30 60 -35 6
-5 38 -23 71 -40 33 -18 67 -36 75 -41 36 -22 130 -76 190 -108 36 -19 70 -38
75 -42 6 -4 31 -19 58 -34 111 -61 149 -83 277 -157 123 -70 199 -112 255
-143 11 -6 22 -13 25 -16 5 -5 58 -35 130 -72 25 -13 47 -26 50 -29 3 -3 41
-25 85 -49 44 -24 91 -50 105 -59 14 -9 39 -23 55 -31 17 -8 49 -27 72 -42 23
-15 45 -28 49 -28 4 0 29 -13 55 -30 27 -16 49 -26 49 -22 0 4 4 2 8 -4 4 -6
50 -34 102 -64 52 -29 109 -61 125 -70 255 -144 323 -185 342 -202 56 -52 53
83 50 -2295 l-2 -2191 -30 -37 c-16 -20 -48 -47 -70 -59 -22 -11 -42 -23 -45
-26 -3 -3 -15 -10 -26 -17 -68 -37 -442 -249 -492 -278 -9 -6 -73 -41 -142
-79 -69 -38 -127 -72 -130 -76 -3 -3 -16 -11 -30 -17 -14 -7 -49 -26 -77 -43
-29 -16 -77 -44 -105 -60 -29 -17 -69 -38 -88 -48 -19 -9 -37 -20 -40 -23 -3
-3 -32 -20 -64 -38 -58 -32 -257 -144 -286 -161 -32 -20 -346 -197 -360 -203
-8 -4 -28 -15 -45 -25 -30 -19 -85 -50 -172 -98 -27 -15 -73 -41 -103 -59 -50
-30 -108 -62 -200 -111 -19 -11 -36 -22 -38 -26 -2 -5 -7 -8 -12 -8 -7 0 -205
-111 -425 -238 -44 -25 -96 -54 -115 -64 -19 -10 -42 -23 -50 -28 -29 -19
-261 -149 -350 -196 -19 -11 -37 -21 -40 -24 -3 -3 -14 -10 -25 -16 -11 -6
-99 -55 -195 -110 -160 -90 -179 -99 -226 -98 -29 0 -59 5 -67 12 -7 6 -16 10
-19 7 -3 -3 -11 1 -18 10 -7 8 -19 15 -26 15 -8 0 -14 5 -14 10 0 6 -9 10 -20
10 -11 0 -20 4 -20 9 0 5 -10 13 -22 17 -13 3 -35 15 -50 25 -14 11 -33 19
-41 19 -9 0 -17 4 -19 8 -4 10 -314 182 -328 182 -5 0 -10 3 -10 8 0 4 -32 23
-70 42 -39 19 -70 38 -70 42 0 5 -5 8 -11 8 -8 0 -218 113 -359 193 -19 11
-55 31 -80 45 -25 13 -88 48 -141 78 -54 30 -101 54 -106 54 -9 0 -12 -475 -3
-483 11 -9 149 -87 155 -87 3 0 25 -13 48 -28 23 -16 57 -35 75 -43 17 -8 32
-17 32 -21 0 -5 4 -8 10 -8 5 0 48 -23 96 -50 48 -28 90 -50 95 -50 4 0 9 -3
11 -7 2 -5 19 -16 38 -25 19 -10 58 -31 85 -47 28 -17 64 -37 80 -46 17 -9 39
-21 50 -28 11 -7 63 -36 115 -65 52 -29 102 -57 110 -62 31 -20 207 -117 250
-138 111 -53 305 -64 429 -23 35 11 95 38 135 60 39 21 87 47 106 57 19 11 37
22 40 25 3 3 34 21 70 41 36 19 81 45 100 56 19 12 42 25 50 29 20 9 341 191
360 203 8 6 26 16 40 22 14 7 49 27 78 45 28 18 52 29 52 25 0 -4 4 -2 8 3 8
13 170 105 183 105 5 0 9 4 9 8 0 4 12 13 28 19 15 7 45 22 67 35 62 36 146
84 190 108 22 13 60 34 85 48 25 14 62 36 83 49 20 13 37 20 37 16 0 -5 4 -3
8 3 4 6 50 34 102 64 162 91 263 148 355 200 22 13 58 33 81 46 22 12 59 34
82 48 23 14 46 26 50 26 5 0 21 9 34 20 14 10 28 16 32 13 3 -3 6 -1 6 5 0 7
7 12 15 12 8 0 15 5 15 12 0 6 3 9 6 5 3 -3 30 10 59 29 30 19 56 34 58 34 2
0 43 22 91 50 48 27 91 50 96 50 6 0 10 5 10 10 0 6 5 10 10 10 8 0 127 65
295 162 33 19 367 209 405 230 19 11 51 29 70 40 19 11 58 33 85 47 28 15 69
39 92 54 24 15 45 27 47 27 3 0 44 23 92 51 78 46 214 166 214 189 0 5 6 15
13 22 13 15 63 118 60 127 -1 3 2 11 7 16 28 34 30 174 30 2350 0 2155 -2
2257 -29 2330 -20 52 -77 165 -83 165 -5 0 -8 5 -8 10 0 15 -108 118 -155 148
-22 14 -69 42 -105 62 -124 69 -166 93 -293 166 -71 41 -133 74 -138 74 -5 0
-9 3 -9 8 0 4 -15 13 -32 21 -18 8 -41 21 -50 29 -10 8 -18 11 -18 6 0 -5 -4
-4 -8 1 -4 6 -18 16 -31 23 -13 8 -40 23 -60 35 -81 46 -137 77 -161 89 -14 7
-27 15 -30 19 -3 3 -18 12 -35 21 -43 22 -148 80 -160 88 -5 4 -32 20 -60 35
-119 65 -230 130 -233 137 -2 5 -8 6 -13 2 -5 -3 -9 0 -9 7 0 7 -3 9 -6 6 -4
-4 -19 2 -34 13 -16 11 -33 20 -39 20 -6 0 -11 5 -11 10 0 6 -4 10 -9 10 -9 0
-186 97 -221 120 -8 6 -31 18 -50 28 -19 9 -36 20 -38 25 -2 4 -8 7 -13 7 -5
0 -37 17 -72 38 -86 51 -116 68 -157 88 -19 10 -37 20 -40 23 -3 4 -21 14 -40
24 -19 9 -48 25 -65 35 -40 25 -121 70 -170 96 -22 12 -41 24 -43 29 -2 4 -7
7 -11 7 -4 0 -79 41 -165 90 -87 50 -160 90 -163 90 -2 0 -29 16 -59 35 -30
19 -57 35 -60 35 -3 0 -36 17 -72 39 -37 21 -83 48 -102 59 -220 124 -400 227
-425 240 -16 9 -38 24 -49 32 -10 8 -19 13 -20 11 0 -3 -29 12 -64 32 -35 20
-67 37 -73 37 -5 0 -9 5 -9 10 0 6 -4 10 -10 10 -5 0 -31 13 -57 28 -65 38
-170 82 -177 75 -3 -4 -6 -2 -6 3 0 5 -10 10 -22 11 -51 5 -247 11 -250 8z"/>
<path d="M2540 9672 c-25 -8 -57 -23 -72 -33 -14 -11 -30 -19 -35 -19 -14 -1
-75 -89 -90 -133 -20 -53 -19 -151 2 -199 8 -21 55 -108 104 -195 48 -87 103
-185 121 -218 19 -33 44 -78 56 -100 53 -93 54 -97 43 -111 -6 -8 -15 -14 -19
-14 -3 0 -72 -38 -152 -83 -80 -46 -151 -87 -159 -90 -8 -4 -30 -17 -49 -28
-118 -70 -279 -159 -289 -159 -6 0 -11 -4 -11 -9 0 -5 -8 -12 -17 -15 -24 -9
-77 -37 -83 -45 -3 -3 -23 -15 -45 -26 -22 -11 -58 -31 -80 -44 -22 -14 -56
-33 -75 -43 -19 -10 -57 -31 -85 -48 -27 -16 -57 -33 -65 -37 -23 -12 -214
-120 -320 -181 -52 -31 -109 -62 -125 -71 -17 -9 -102 -56 -189 -106 -224
-128 -306 -212 -372 -385 l-29 -75 0 -2260 c0 -1243 2 -2277 5 -2297 3 -21 8
-38 13 -38 4 0 7 -10 7 -23 0 -13 3 -27 8 -31 4 -4 7 -11 8 -14 1 -15 40 -88
57 -106 9 -11 17 -24 17 -29 0 -29 212 -197 249 -197 6 0 11 -4 11 -10 0 -5 5
-10 11 -10 6 0 41 -18 77 -39 37 -21 157 -90 267 -152 110 -63 218 -124 240
-137 22 -12 48 -25 58 -29 9 -3 17 -9 17 -14 0 -5 5 -9 10 -9 6 0 73 -36 150
-80 77 -44 143 -80 148 -80 4 0 18 -9 30 -20 12 -11 24 -20 27 -20 5 1 180
-96 373 -207 52 -29 98 -53 103 -53 5 0 9 -4 9 -8 0 -5 16 -14 35 -22 19 -8
35 -18 35 -22 0 -5 4 -6 10 -3 5 3 10 1 10 -4 0 -6 4 -11 9 -11 5 0 44 -20 85
-45 42 -25 80 -45 84 -45 5 0 8 950 8 2110 -1 1161 1 2110 4 2110 5 0 210
-411 215 -430 1 -3 23 -50 50 -105 27 -55 48 -103 47 -107 -1 -5 3 -8 8 -8 6
0 10 -4 10 -9 0 -6 48 -108 106 -228 200 -410 277 -568 361 -743 94 -194 207
-426 292 -597 43 -88 59 -113 75 -114 12 0 71 -1 131 -1 l110 -1 42 81 c22 45
38 82 35 82 -4 0 -2 4 3 8 15 10 35 49 35 67 0 8 3 15 8 15 4 0 13 15 21 33
17 41 130 277 142 297 5 8 13 24 18 36 5 12 59 123 120 248 61 125 111 232
111 237 0 5 4 9 10 9 5 0 9 3 8 8 -2 4 22 57 52 117 29 61 54 112 55 115 1 3
45 94 98 203 53 109 97 203 97 208 0 5 5 9 10 9 6 0 10 5 10 11 0 6 18 47 40
90 21 44 39 82 39 84 1 3 13 29 28 58 15 28 27 54 28 57 1 7 136 280 138 280
1 0 2 -529 2 -1175 l0 -1175 40 -1 c181 -4 1839 0 1905 5 115 8 227 29 328 61
7 3 16 5 20 6 4 0 13 5 20 11 6 6 12 8 12 4 0 -11 141 64 215 114 66 44 139
110 195 176 50 59 79 102 73 108 -4 3 -1 6 5 6 7 0 12 5 12 10 0 6 11 28 24
49 14 21 22 42 19 45 -4 3 -1 6 5 6 7 0 11 3 10 8 -1 4 6 25 15 46 76 174 112
501 77 696 -48 271 -186 499 -387 636 -34 23 -85 53 -113 66 -27 13 -50 25
-50 28 0 3 23 24 52 45 66 51 123 112 171 183 41 61 99 178 112 227 12 44 13
47 19 80 3 17 8 41 11 55 5 22 17 167 17 195 -1 43 -11 157 -16 172 -2 10 -7
36 -11 57 -3 22 -12 59 -20 83 -8 24 -15 48 -15 54 0 16 -95 212 -111 229 -8
8 -21 28 -29 44 -24 47 -189 207 -265 258 -56 37 -212 120 -222 118 -2 0 -4 0
-5 1 -2 0 -10 2 -18 4 -8 2 -40 11 -70 19 -30 8 -68 17 -85 20 -16 3 -41 7
-55 11 -14 3 -79 8 -145 11 -180 8 -194 8 -201 2 -3 -4 -19 -2 -35 2 -17 5
-31 5 -35 -1 -3 -5 -10 -7 -15 -3 -14 8 -103 9 -117 0 -7 -4 -12 -2 -12 5 0 8
-3 9 -13 0 -8 -6 -16 -8 -20 -5 -8 8 -101 9 -114 1 -6 -4 -19 -4 -29 0 -15 5
-68 8 -91 3 -7 -1 -96 -1 -188 1 -22 0 -44 0 -50 -1 -5 -1 -48 -1 -95 1 -77 1
-592 1 -666 0 -32 -1 -33 -3 -263 -465 -127 -254 -231 -468 -231 -474 0 -6 -3
-12 -7 -14 -5 -1 -39 -66 -77 -143 -116 -236 -128 -259 -139 -281 -7 -12 -43
-84 -80 -160 -38 -76 -73 -146 -77 -154 -5 -8 -111 -221 -236 -473 -125 -251
-228 -456 -230 -455 -1 2 -71 140 -155 308 -274 551 -361 725 -372 745 -6 11
-12 22 -12 25 -1 13 -151 305 -157 308 -5 2 -8 8 -8 14 0 6 -135 282 -300 613
l-299 603 -36 4 c-20 2 -38 2 -40 0 -3 -3 -28 -4 -57 -3 -95 2 -133 3 -143 2
-9 -2 -178 -1 -270 0 -22 1 -44 0 -50 -1 -5 -1 -25 -1 -42 0 l-33 2 0 -104 c0
-57 -1 -1166 -1 -2465 l0 -2363 -57 30 c-31 17 -64 35 -72 40 -20 13 -249 142
-355 199 -16 9 -32 18 -35 21 -3 3 -18 12 -35 21 -64 35 -143 79 -205 114 -36
21 -92 52 -124 69 -84 44 -141 102 -149 152 -11 75 -6 4357 5 4394 12 41 49
83 92 105 17 8 38 20 46 25 45 29 353 200 361 200 5 0 9 3 9 8 0 4 10 12 23
18 32 15 114 61 172 95 28 17 58 33 68 36 9 3 17 10 17 15 0 5 4 7 9 3 5 -3
12 -1 16 5 3 6 23 18 43 29 52 25 106 55 112 61 3 3 14 10 25 16 11 6 43 23
70 39 28 15 70 39 95 53 25 14 139 78 253 144 115 65 210 118 213 118 2 0 27
15 56 34 29 18 63 36 76 40 12 4 22 12 22 17 0 5 9 9 20 9 11 0 20 3 20 8 0 9
128 77 134 71 2 -2 36 -59 75 -127 39 -67 78 -134 87 -147 9 -14 12 -25 8 -25
-5 0 -4 -4 2 -8 5 -4 37 -53 70 -110 66 -116 106 -163 165 -193 56 -28 133
-38 189 -25 8 2 30 7 48 11 17 4 32 11 32 16 0 5 6 9 13 9 30 0 122 117 132
169 2 9 21 82 44 161 118 422 272 975 277 998 6 29 6 97 -1 130 -7 39 -46 111
-67 126 -12 9 -19 16 -14 16 5 0 -9 12 -30 27 -32 22 -144 65 -204 78 -8 2
-41 11 -72 19 -32 9 -84 23 -115 31 -32 9 -89 25 -128 37 -38 11 -74 21 -80
22 -5 1 -16 5 -22 9 -7 5 -13 6 -13 3 0 -2 -15 0 -32 6 -18 5 -80 23 -138 38
-58 16 -120 33 -138 39 -18 5 -33 10 -35 10 -1 0 -9 2 -17 5 -39 13 -243 66
-272 71 -18 3 -34 8 -37 10 -2 2 -12 0 -22 -5 -9 -6 -19 -6 -21 -1 -2 4 -23 1
-48 -7z m560 -573 c41 -11 84 -21 96 -24 12 -3 40 -11 63 -19 22 -9 41 -13 41
-10 0 3 6 2 13 -3 6 -4 17 -8 22 -9 6 -1 36 -9 68 -18 104 -29 168 -46 172
-46 2 0 -2 -18 -10 -40 -8 -22 -15 -44 -15 -48 0 -4 -5 -25 -11 -47 -6 -22
-13 -47 -15 -55 -4 -16 -20 -77 -83 -302 -23 -80 -41 -150 -41 -154 0 -10 -21
20 -47 66 -11 19 -30 53 -44 75 -13 22 -22 42 -21 44 2 2 0 7 -5 10 -4 3 -13
15 -19 27 -7 11 -39 68 -73 126 -33 59 -61 111 -61 117 0 6 -4 11 -9 11 -5 0
-11 8 -15 18 -3 9 -14 31 -23 47 -32 52 -153 274 -153 278 0 3 21 -2 48 -10
26 -8 81 -23 122 -34z m3849 -2703 c124 -14 204 -51 279 -126 53 -53 104 -134
116 -185 5 -16 10 -39 13 -50 8 -28 10 -225 3 -225 -3 0 -7 -12 -8 -26 -4 -47
-60 -149 -111 -201 -47 -49 -156 -113 -191 -113 -9 0 -20 -3 -24 -7 -14 -14
-52 -16 -543 -18 l-503 -3 0 478 0 479 23 3 c41 6 891 1 946 -6z m136 -1580
c65 -10 77 -13 133 -34 214 -82 343 -286 337 -533 -2 -72 -6 -99 -21 -161 -1
-5 -2 -9 -4 -10 -1 -2 -3 -12 -5 -23 -9 -49 -72 -143 -139 -208 -52 -50 -182
-120 -246 -132 -19 -4 -55 -10 -80 -15 -25 -4 -278 -8 -562 -9 l-518 -1 0 568
0 567 533 -1 c292 -1 550 -4 572 -8z"/>
</g>
</svg>
