<svg id="Calque_1" data-name="Calque 1" xmlns="http://www.w3.org/2000/svg" viewBox="0 0 884.58 983.63"><defs><style>.cls-1{fill:#ee9d3b;}</style></defs><path class="cls-1" d="M310.24,156.4,110.3,269.64a16.63,16.63,0,0,0-8.4,14.44V715a16.62,16.62,0,0,0,8.4,14.43L275.24,822.6v50.88L88.52,767.87A60.89,60.89,0,0,1,57.71,715V284.08a60.9,60.9,0,0,1,30.81-52.89l206-116.69" transform="translate(-57.71 -8.19)"/><path class="cls-1" d="M443,81l45.77-25.75a22.94,22.94,0,0,1,22.47,0L889.69,269.64a16.62,16.62,0,0,1,8.41,14.44V715a16.61,16.61,0,0,1-8.41,14.43L508.17,945.52a16.68,16.68,0,0,1-16.34,0l-141.92-78.6v49l120.15,68A61.14,61.14,0,0,0,530,984l381.52-216.1A60.88,60.88,0,0,0,942.29,715V284.08a60.91,60.91,0,0,0-30.82-52.89L533,16.83a67.37,67.37,0,0,0-66,0L418.89,44.07Z" transform="translate(-57.71 -8.19)"/><path class="cls-1" d="M205.55,685.18V290.08H272.5l130.6,262.3,130.6-262.3h66.95v395.1H531v-236l-114.69,236H389.93l-114.69-236v236Z" transform="translate(-57.71 -8.19)"/><path class="cls-1" d="M538.41,685.18V290.08H695.07q40.06,0,65.72,16.05t38.14,41a114.2,114.2,0,0,1,12.48,51.58q0,32.65-15.5,55.43a75.71,75.71,0,0,1-42.12,30.72V471.17q37.31,8.5,56.66,35.39t19.34,61.19q0,35.12-13.44,61.45a96.77,96.77,0,0,1-39.92,41.16Q750,685.18,711,685.18Zm67-237.33h88.89a57.46,57.46,0,0,0,25.52-5.49,42.37,42.37,0,0,0,17.83-16.19q6.58-10.69,6.59-26.34,0-20.58-13.17-34.3t-36.77-13.72H605.36Zm0,175h97.4q17.28,0,31-7a52.88,52.88,0,0,0,21.54-19.76q7.82-12.75,7.82-30.31a58.85,58.85,0,0,0-6.86-28.54,51.23,51.23,0,0,0-20-20.17q-13.17-7.53-31.55-7.54H605.36Z" transform="translate(-57.71 -8.19)"/><polygon class="cls-1" points="217.54 676.99 147.84 676.99 147.84 676.99 217.54 676.99 217.54 676.99"/><polyline class="cls-1" points="217.54 630.36 147.84 630.36 147.84 811.64 217.54 865.29"/><path class="cls-1" d="M349.1,228.34a29.05,29.05,0,0,1-22.43-14.52L280.83,133.7l-37-66.4a29.13,29.13,0,0,1,33.25-42.24L391.55,56.87A29.14,29.14,0,0,1,411.8,92.76L380,207.14a29.06,29.06,0,0,1-24.45,21.1A29.74,29.74,0,0,1,349.1,228.34ZM319.38,112.09l27.72,48.46,18.1-65.14L300,77.29ZM369.23,80.9v0Z" transform="translate(-57.71 -8.19)"/></svg>